<svg xmlns="http://www.w3.org/2000/svg" xmlns:xlink="http://www.w3.org/1999/xlink" width="700" height="400" viewBox="0 0 185.208 105.833"><defs><linearGradient id="b"><stop offset="0" stop-color="#969696"/><stop offset="1" stop-color="#dcdcdc"/></linearGradient><linearGradient id="c"><stop offset="0" stop-color="#a394ff"/><stop offset="1" stop-color="#d6b8ff"/></linearGradient><linearGradient id="a"><stop offset="0" stop-color="#dcdcdc"/><stop offset="1" stop-color="#fff"/></linearGradient><linearGradient xlink:href="#a" id="e" x1="-2.995" y1="244.825" x2="11.202" y2="229.706" gradientUnits="userSpaceOnUse" gradientTransform="matrix(.5149 0 0 .49053 34.068 131.208)"/><linearGradient xlink:href="#a" id="f" x1="-2.995" y1="244.825" x2="11.202" y2="229.706" gradientUnits="userSpaceOnUse" gradientTransform="matrix(.5149 0 0 .49053 53.746 131.208)"/><linearGradient xlink:href="#a" id="g" x1="-2.995" y1="244.825" x2="11.202" y2="229.706" gradientUnits="userSpaceOnUse" gradientTransform="matrix(.5149 0 0 .49053 22.835 146.71)"/><linearGradient xlink:href="#a" id="h" x1="-2.995" y1="244.825" x2="11.202" y2="229.706" gradientUnits="userSpaceOnUse" gradientTransform="matrix(.5149 0 0 .49053 64.979 146.71)"/><linearGradient xlink:href="#b" id="i" x1="-2.995" y1="244.825" x2="11.202" y2="229.706" gradientUnits="userSpaceOnUse" gradientTransform="matrix(.5149 0 0 .49053 43.907 146.71)"/><linearGradient xlink:href="#a" id="l" x1="-2.995" y1="244.825" x2="11.202" y2="229.706" gradientUnits="userSpaceOnUse" gradientTransform="matrix(.5149 0 0 .49053 54.443 162.213)"/><linearGradient xlink:href="#b" id="k" x1="-2.995" y1="244.825" x2="11.202" y2="229.706" gradientUnits="userSpaceOnUse" gradientTransform="matrix(.5149 0 0 .49053 75.515 162.213)"/><linearGradient xlink:href="#b" id="j" x1="-2.995" y1="244.825" x2="11.202" y2="229.706" gradientUnits="userSpaceOnUse" gradientTransform="matrix(.5149 0 0 .49053 12.3 162.213)"/><linearGradient xlink:href="#c" id="m" x1="-2.995" y1="244.825" x2="11.202" y2="229.706" gradientUnits="userSpaceOnUse" gradientTransform="matrix(.5149 0 0 .49053 33.371 162.213)"/><linearGradient xlink:href="#a" id="v" gradientUnits="userSpaceOnUse" gradientTransform="matrix(.5149 0 0 .49053 136.649 102.57)" x1="-2.995" y1="244.825" x2="11.202" y2="229.706"/><linearGradient xlink:href="#a" id="w" gradientUnits="userSpaceOnUse" gradientTransform="matrix(.5149 0 0 .49053 126.81 118.072)" x1="-2.995" y1="244.825" x2="11.202" y2="229.706"/><linearGradient xlink:href="#a" id="x" gradientUnits="userSpaceOnUse" gradientTransform="matrix(.5149 0 0 .49053 146.488 118.072)" x1="-2.995" y1="244.825" x2="11.202" y2="229.706"/><linearGradient xlink:href="#a" id="y" gradientUnits="userSpaceOnUse" gradientTransform="matrix(.5149 0 0 .49053 115.577 133.575)" x1="-2.995" y1="244.825" x2="11.202" y2="229.706"/><linearGradient xlink:href="#a" id="z" gradientUnits="userSpaceOnUse" gradientTransform="matrix(.5149 0 0 .49053 157.72 133.575)" x1="-2.995" y1="244.825" x2="11.202" y2="229.706"/><linearGradient xlink:href="#b" id="A" gradientUnits="userSpaceOnUse" gradientTransform="matrix(.5149 0 0 .49053 136.649 133.575)" x1="-2.995" y1="244.825" x2="11.202" y2="229.706"/><linearGradient xlink:href="#b" id="B" gradientUnits="userSpaceOnUse" gradientTransform="matrix(.5149 0 0 .49053 105.04 149.077)" x1="-2.995" y1="244.825" x2="11.202" y2="229.706"/><linearGradient xlink:href="#b" id="C" gradientUnits="userSpaceOnUse" gradientTransform="matrix(.5149 0 0 .49053 168.256 149.077)" x1="-2.995" y1="244.825" x2="11.202" y2="229.706"/><linearGradient xlink:href="#a" id="D" gradientUnits="userSpaceOnUse" gradientTransform="matrix(.5149 0 0 .49053 147.185 149.077)" x1="-2.995" y1="244.825" x2="11.202" y2="229.706"/><linearGradient xlink:href="#c" id="E" gradientUnits="userSpaceOnUse" gradientTransform="matrix(.5149 0 0 .49053 126.113 149.077)" x1="-2.995" y1="244.825" x2="11.202" y2="229.706"/><linearGradient xlink:href="#a" id="d" gradientUnits="userSpaceOnUse" gradientTransform="matrix(.5149 0 0 .49053 43.907 115.706)" x1="-2.995" y1="244.825" x2="11.202" y2="229.706"/><linearGradient xlink:href="#a" id="L" gradientUnits="userSpaceOnUse" gradientTransform="matrix(.27414 0 0 .26116 4.849 227.893)" x1="-2.995" y1="244.825" x2="11.202" y2="229.706"/><linearGradient xlink:href="#b" id="J" x1="-2.995" y1="244.825" x2="11.202" y2="229.706" gradientUnits="userSpaceOnUse" gradientTransform="matrix(.27414 0 0 .26116 130.214 227.654)"/><linearGradient xlink:href="#c" id="K" x1="-2.995" y1="244.825" x2="11.202" y2="229.706" gradientUnits="userSpaceOnUse" gradientTransform="matrix(.27414 0 0 .26116 56.577 227.654)"/><marker orient="auto" refY="0" refX="0" id="n" overflow="visible"><path d="M2.308 0l-3.46 2v-4l3.46 2z" fill-rule="evenodd" stroke="#e60000" stroke-width=".4pt" fill="#e60000"/></marker><marker orient="auto" refY="0" refX="0" id="o" overflow="visible"><path d="M2.308 0l-3.46 2v-4z" fill="#e60000" fill-rule="evenodd" stroke="#e60000" stroke-width=".5332"/></marker><marker orient="auto" refY="0" refX="0" id="p" overflow="visible"><path d="M2.308 0l-3.46 2v-4z" fill="#e60000" fill-rule="evenodd" stroke="#e60000" stroke-width=".5332"/></marker><marker orient="auto" refY="0" refX="0" id="q" overflow="visible"><path d="M2.308 0l-3.46 2v-4z" fill="#e60000" fill-rule="evenodd" stroke="#e60000" stroke-width=".5332"/></marker><marker orient="auto" refY="0" refX="0" id="r" overflow="visible"><path d="M2.308 0l-3.46 2v-4z" fill="#e60000" fill-rule="evenodd" stroke="#e60000" stroke-width=".5332"/></marker><marker orient="auto" refY="0" refX="0" id="s" overflow="visible"><path d="M2.308 0l-3.46 2v-4z" fill="#e60000" fill-rule="evenodd" stroke="#e60000" stroke-width=".5332"/></marker><marker orient="auto" refY="0" refX="0" id="t" overflow="visible"><path d="M2.308 0l-3.46 2v-4z" fill="#e60000" fill-rule="evenodd" stroke="#e60000" stroke-width=".5332"/></marker><marker orient="auto" refY="0" refX="0" id="u" overflow="visible"><path d="M2.308 0l-3.46 2v-4z" fill="#e60000" fill-rule="evenodd" stroke="#e60000" stroke-width=".5332"/></marker><marker orient="auto" refY="0" refX="0" id="F" overflow="visible"><path d="M2.308 0l-3.46 2v-4z" fill="#66bc65" fill-rule="evenodd" stroke="#66bc65" stroke-width=".5332"/></marker><marker orient="auto" refY="0" refX="0" id="G" overflow="visible"><path d="M2.308 0l-3.46 2v-4z" fill="#119bbd" fill-rule="evenodd" stroke="#119bbd" stroke-width=".5332"/></marker><marker orient="auto" refY="0" refX="0" id="H" overflow="visible"><path d="M2.308 0l-3.46 2v-4z" fill="#119bbd" fill-rule="evenodd" stroke="#119bbd" stroke-width=".5332"/></marker><marker orient="auto" refY="0" refX="0" id="I" overflow="visible"><path d="M2.308 0l-3.46 2v-4z" fill="#119bbd" fill-rule="evenodd" stroke="#119bbd" stroke-width=".5332"/></marker></defs><path d="M92.736 2.013v88.099" fill="none" stroke="#000" stroke-width=".265" stroke-dasharray=".26458334,1.05833336"/><g stroke="#000" stroke-width=".794" transform="translate(.046 -200.945)"><g fill="none"><path d="M45.971 232.092l-31.608 46.507M24.9 263.097l10.535 15.502M45.971 232.092l31.608 46.507M55.81 247.594l-9.839 15.503M67.043 263.097l-10.536 15.502"/></g><ellipse cx="45.971" cy="232.092" rx="5.436" ry="5.179" fill="url(#d)" stroke-linecap="round" stroke-linejoin="round"/><ellipse cx="36.132" cy="247.594" rx="5.436" ry="5.179" fill="url(#e)" stroke-linecap="round" stroke-linejoin="round"/><ellipse cx="55.811" cy="247.594" rx="5.436" ry="5.179" fill="url(#f)" stroke-linecap="round" stroke-linejoin="round"/><ellipse cx="24.899" cy="263.097" rx="5.436" ry="5.179" fill="url(#g)" stroke-linecap="round" stroke-linejoin="round"/><ellipse cx="67.043" cy="263.097" rx="5.436" ry="5.179" fill="url(#h)" stroke-linecap="round" stroke-linejoin="round"/><ellipse cx="45.971" cy="263.097" rx="5.436" ry="5.179" fill="url(#i)" stroke-linecap="round" stroke-linejoin="round"/><ellipse cx="14.363" cy="278.599" rx="5.436" ry="5.179" fill="url(#j)" stroke-linecap="round" stroke-linejoin="round"/><ellipse cx="77.579" cy="278.599" rx="5.436" ry="5.179" fill="url(#k)" stroke-linecap="round" stroke-linejoin="round"/><ellipse cx="56.507" cy="278.599" rx="5.436" ry="5.179" fill="url(#l)" stroke-linecap="round" stroke-linejoin="round"/><ellipse cx="35.435" cy="278.599" rx="5.436" ry="5.179" fill="url(#m)" stroke-linecap="round" stroke-linejoin="round"/></g><g fill="none" stroke="#e60000" stroke-width=".529" stroke-linecap="round"><path d="M39.048 276.41s1.85-7.59-6.465-11.576" marker-end="url(#n)" transform="translate(.046 -200.945)"/><path d="M22.34 260.03s-1.492-6.989 6.698-9.772" marker-end="url(#o)" transform="translate(.046 -200.945)"/><path d="M32.53 245.169s-1.492-6.989 6.698-9.772" marker-end="url(#p)" transform="translate(.046 -200.945)"/><path d="M21.235 263.27s-7.137-.36-8.582 8.168" marker-end="url(#q)" transform="translate(.046 -200.945)"/><path d="M49.388 231.094s7.136.368 7.705 9" marker-end="url(#r)" transform="translate(.046 -200.945)"/><path d="M60.068 246.58s7.137.368 7.705 9" marker-end="url(#s)" transform="translate(.046 -200.945)"/><path d="M70.893 262.216s7.136.368 7.705 8.999" marker-end="url(#t)" transform="translate(.046 -200.945)"/><path d="M52.319 246.714s-7.137.368-7.706 9" marker-end="url(#u)" transform="translate(.046 -200.945)"/></g><g stroke="#000" stroke-width=".794" transform="translate(3.024 -187.809)"><g fill="none"><path d="M138.713 218.956l-31.608 46.507M117.641 249.96l10.536 15.503M138.713 218.956l31.608 46.507M148.552 234.459l-9.84 15.502M159.785 249.96l-10.536 15.503"/></g><ellipse cx="138.713" cy="218.956" rx="5.436" ry="5.179" fill="url(#v)" stroke-linecap="round" stroke-linejoin="round"/><ellipse cx="128.874" cy="234.459" rx="5.436" ry="5.179" fill="url(#w)" stroke-linecap="round" stroke-linejoin="round"/><ellipse cx="148.552" cy="234.459" rx="5.436" ry="5.179" fill="url(#x)" stroke-linecap="round" stroke-linejoin="round"/><ellipse cx="117.641" cy="249.961" rx="5.436" ry="5.179" fill="url(#y)" stroke-linecap="round" stroke-linejoin="round"/><ellipse cx="159.785" cy="249.961" rx="5.436" ry="5.179" fill="url(#z)" stroke-linecap="round" stroke-linejoin="round"/><ellipse cx="138.713" cy="249.961" rx="5.436" ry="5.179" fill="url(#A)" stroke-linecap="round" stroke-linejoin="round"/><ellipse cx="107.105" cy="265.463" rx="5.436" ry="5.179" fill="url(#B)" stroke-linecap="round" stroke-linejoin="round"/><ellipse cx="170.321" cy="265.463" rx="5.436" ry="5.179" fill="url(#C)" stroke-linecap="round" stroke-linejoin="round"/><ellipse cx="149.249" cy="265.463" rx="5.436" ry="5.179" fill="url(#D)" stroke-linecap="round" stroke-linejoin="round"/><ellipse cx="128.177" cy="265.463" rx="5.436" ry="5.179" fill="url(#E)" stroke-linecap="round" stroke-linejoin="round"/></g><path d="M127.647 258.73s-2.427-16.276-13.146-33.892" fill="none" stroke="#66bc65" stroke-width="1.323" stroke-linecap="round" marker-end="url(#F)" transform="translate(3.024 -187.809)"/><g transform="translate(-.183 -180.726)"><ellipse ry="8.456" rx="14.192" cy="204.859" cx="113.523" fill="#ffa900" stroke="#000" stroke-width=".794" stroke-linecap="round" stroke-linejoin="round" stroke-dasharray="2.38125005,2.38125005"/><text style="line-height:1.25;-inkscape-font-specification:'sans-serif, Bold';font-variant-ligatures:normal;font-variant-caps:normal;font-variant-numeric:normal;font-feature-settings:normal;text-align:start" x="105.751" y="206.679" font-weight="700" font-size="5.292" letter-spacing="0" word-spacing="0" font-family="sans-serif" stroke-width=".171"><tspan x="105.751" y="206.679" style="-inkscape-font-specification:'sans-serif, Bold';font-variant-ligatures:normal;font-variant-caps:normal;font-variant-numeric:normal;font-feature-settings:normal;text-align:start">store</tspan></text></g><path d="M106.874 221.759s-9.13 13.804-2.559 33.946" fill="none" stroke="#119bbd" stroke-width="1.323" stroke-linecap="round" marker-end="url(#G)" transform="translate(3.024 -187.809)"/><path d="M124.276 216.321s12.726 7.341 13.737 23.516" fill="none" stroke="#119bbd" stroke-width="1.323" stroke-linecap="round" marker-end="url(#H)" transform="translate(3.024 -187.809)"/><path d="M124.824 207.878s48.807-6.557 46.611 47.436" fill="none" stroke="#119bbd" stroke-width="1.323" stroke-linecap="round" marker-end="url(#I)" transform="translate(3.024 -187.809)"/><path d="M3.78 90.714h178.027" fill="none" stroke="#000" stroke-width=".265" stroke-dasharray=".26458334,1.05833336"/><text style="line-height:1.25;-inkscape-font-specification:'sans-serif, Bold';font-variant-ligatures:normal;font-variant-caps:normal;font-variant-numeric:normal;font-feature-settings:normal;text-align:start" x="23.057" y="199.759" font-weight="700" font-size="5.292" font-family="sans-serif" letter-spacing="0" word-spacing="0" stroke-width=".265" transform="translate(0 -191.167)"><tspan x="23.057" y="199.759" style="-inkscape-font-specification:'sans-serif, Bold';font-variant-ligatures:normal;font-variant-caps:normal;font-variant-numeric:normal;font-feature-settings:normal;text-align:start">State classique</tspan></text><text style="line-height:1.25;-inkscape-font-specification:'sans-serif, Bold';font-variant-ligatures:normal;font-variant-caps:normal;font-variant-numeric:normal;font-feature-settings:normal;text-align:start" x="102.731" y="199.844" font-weight="700" font-size="5.292" font-family="sans-serif" letter-spacing="0" word-spacing="0" stroke-width=".265" transform="translate(0 -191.167)"><tspan x="102.731" y="199.844" style="-inkscape-font-specification:'sans-serif, Bold';font-variant-ligatures:normal;font-variant-caps:normal;font-variant-numeric:normal;font-feature-settings:normal;text-align:start">State géré par un store</tspan></text><g transform="translate(0 -191.047)"><text y="291.196" x="135.881" style="line-height:1.25;-inkscape-font-specification:'sans-serif, Bold';font-variant-ligatures:normal;font-variant-caps:normal;font-variant-numeric:normal;font-feature-settings:normal;text-align:start" font-weight="700" font-size="4.233" font-family="sans-serif" letter-spacing="0" word-spacing="0" stroke-width=".265"><tspan style="-inkscape-font-specification:'sans-serif, Bold';font-variant-ligatures:normal;font-variant-caps:normal;font-variant-numeric:normal;font-feature-settings:normal;text-align:start" y="291.196" x="135.881">A besoin d&apos;une info</tspan></text><ellipse ry="2.757" rx="2.894" cy="289.618" cx="131.313" fill="url(#J)" stroke="#000" stroke-width=".423" stroke-linecap="round" stroke-linejoin="round"/></g><g transform="translate(-5.45 -191.047)"><text y="290.854" x="62.383" style="line-height:1.25;-inkscape-font-specification:'sans-serif, Bold';font-variant-ligatures:normal;font-variant-caps:normal;font-variant-numeric:normal;font-feature-settings:normal;text-align:start" font-weight="700" font-size="4.233" font-family="sans-serif" letter-spacing="0" word-spacing="0" stroke-width=".265"><tspan style="-inkscape-font-specification:'sans-serif, Bold';font-variant-ligatures:normal;font-variant-caps:normal;font-variant-numeric:normal;font-feature-settings:normal;text-align:start" y="290.854" x="62.383">Déclenche un changement</tspan></text><ellipse ry="2.757" rx="2.894" cy="289.618" cx="57.676" fill="url(#K)" stroke="#000" stroke-width=".423" stroke-linecap="round" stroke-linejoin="round"/></g><g transform="translate(1.058 -191.286)"><ellipse ry="2.757" rx="2.894" cy="289.857" cx="5.948" fill="url(#L)" stroke="#000" stroke-width=".423" stroke-linecap="round" stroke-linejoin="round"/><text y="290.988" x="11.125" style="line-height:1.25;-inkscape-font-specification:'sans-serif, Bold';font-variant-ligatures:normal;font-variant-caps:normal;font-variant-numeric:normal;font-feature-settings:normal;text-align:start" font-weight="700" font-size="4.233" font-family="sans-serif" letter-spacing="0" word-spacing="0" stroke-width=".265"><tspan style="-inkscape-font-specification:'sans-serif, Bold';font-variant-ligatures:normal;font-variant-caps:normal;font-variant-numeric:normal;font-feature-settings:normal;text-align:start" y="290.988" x="11.125">Composant</tspan></text></g></svg>
